<?xml version="1.0" encoding="iso-8859-1"?>
<!-- Generator: Adobe Illustrator 19.0.0, SVG Export Plug-In . SVG Version: 6.00 Build 0)  -->
<svg version="1.1" id="Layer_1" xmlns="http://www.w3.org/2000/svg" xmlns:xlink="http://www.w3.org/1999/xlink" x="0px" y="0px"
	 viewBox="0 0 512 512" style="enable-background:new 0 0 512 512;" xml:space="preserve">
<path style="fill:#FFE5B6;" d="M237.187,25.67H83.769v0.005H70.817c-18.247,0-33.039,14.792-33.039,33.039l0,0
	c0,18.247,14.792,33.039,33.039,33.039H58.224c-18.247,0-33.039,14.792-33.039,33.039l0,0c0,18.247,14.792,33.039,33.039,33.039
	H45.631c-18.247,0-33.039,14.792-33.039,33.039l0,0c0,18.247,14.792,33.039,33.039,33.039H33.039
	C14.792,223.907,0,238.699,0,256.945l0,0c0,18.247,14.792,33.039,33.039,33.039h76.27c0.035,0,0.071-0.003,0.107-0.003h61.093
	c21.408,0,37.753,19.116,34.416,40.272c-5.818,37.023-13.814,90.908-16.345,123.133c-2.078,26.344,9.268,32.943,21.118,32.943
	c13.147,0,24.921-8.148,30.235-20.161l8.513-19.204c23.07-52.096,55.585-99.483,95.907-139.755l40.99-40.939V88.635V54.659
	C338.295,35.518,287.986,25.67,237.187,25.67z"/>
<path style="fill:#F9D6A2;" d="M199.211,269.127c-8.488-4.52-14.674-6.83-27.616-6.83H0.441
	C3,277.998,16.615,289.985,33.039,289.985h76.27c0.035,0,0.071-0.003,0.106-0.003h61.093c21.408,0,37.753,19.116,34.416,40.272
	c-5.818,37.023-13.814,90.908-16.345,123.133c-2.078,26.344,9.268,32.943,21.118,32.943c0,0,17.74-120.871,22.593-151.759
	C236.365,308.734,224.048,282.352,199.211,269.127z"/>
<path style="fill:#FF7258;" d="M385.341,278.27V35.745c0-5.564,4.511-10.074,10.074-10.074h106.51
	c5.564,0,10.074,4.511,10.074,10.074V278.27c0,5.564-4.511,10.074-10.074,10.074h-106.51
	C389.851,288.344,385.341,283.833,385.341,278.27z"/>
<g>
	<path style="fill:#F95D48;" d="M385.341,278.275v-30.752H512v30.752c0,5.564-4.511,10.074-10.074,10.074h-106.51
		C389.851,288.349,385.341,283.838,385.341,278.275z"/>
	<path style="fill:#F95D48;" d="M455.248,129.431h-8.071c-5.216,0-9.445-4.227-9.445-9.445s4.229-9.445,9.445-9.445h8.071
		c5.216,0,9.445,4.227,9.445,9.445S460.464,129.431,455.248,129.431z"/>
	<path style="fill:#F95D48;" d="M455.345,89.65h-8.071c-5.216,0-9.445-4.227-9.445-9.445s4.229-9.445,9.445-9.445h8.071
		c5.216,0,9.445,4.227,9.445,9.445S460.561,89.65,455.345,89.65z"/>
</g>
<g>
</g>
<g>
</g>
<g>
</g>
<g>
</g>
<g>
</g>
<g>
</g>
<g>
</g>
<g>
</g>
<g>
</g>
<g>
</g>
<g>
</g>
<g>
</g>
<g>
</g>
<g>
</g>
<g>
</g>
</svg>
